<svg width="18" height="18" viewBox="0 0 100 100" xmlns="http://www.w3.org/2000/svg"><path d="M0 0v100h100v-100h-100zm50.455 2.885c26.548 0 47.622 21.536 47.622 48.15 0 21.254-13.79 39.31-32.833 45.705-2.439.47-3.283-1.034-3.283-2.351 0-1.129 0-4.984.094-8.934 13.321 2.915 16.135-5.643 16.135-5.643 2.158-5.549 5.347-7.053 5.347-7.053 4.409-3.009-.375-2.915-.375-2.915-4.784.376-7.317 4.984-7.317 4.984-4.315 7.335-11.257 5.266-13.977 4.044-.469-3.103-1.689-5.266-3.096-6.395 10.694-1.223 21.857-5.36 21.857-23.793 0-5.266-1.876-9.592-4.972-12.884.469-1.223 2.158-6.113-.469-12.79 0 0-4.034-1.317-13.227 4.984-3.846-1.034-7.974-1.599-12.008-1.599-4.128 0-8.161.564-12.008 1.599-9.193-6.207-13.227-4.984-13.227-4.984-2.627 6.677-.938 11.567-.469 12.79-3.096 3.386-4.972 7.617-4.972 12.884 0 18.526 11.257 22.57 21.951 23.793-1.689 1.505-3.283 4.42-3.283 8.934 0 6.395.094 11.661.094 13.26 0 1.317-.844 2.821-3.283 2.351-19.043-6.395-32.833-24.451-32.833-45.705 0-26.614 21.482-48.432 48.03-48.432h.502z" fill="#FFF"/></svg>
